<svg width="40" height="40" viewBox="0 0 41 51" fill="none" xmlns="http://www.w3.org/2000/svg">
<path d="M40.994 9.471C40.9911 9.44187 40.9861 9.41334 40.9812 9.3848C40.9794 9.37485 40.9785 9.36466 40.9766 9.35471C40.9698 9.32031 40.9609 9.28662 40.9511 9.25329C40.9499 9.24934 40.9492 9.24526 40.9481 9.24142C40.9378 9.20762 40.9256 9.17453 40.9125 9.14204C40.911 9.13845 40.91 9.13473 40.9085 9.13125C40.8958 9.10056 40.8813 9.07083 40.8661 9.04158C40.8633 9.03618 40.8611 9.03043 40.8582 9.02504C40.844 8.99878 40.8283 8.97361 40.8124 8.94855C40.8072 8.94052 40.8028 8.93201 40.7975 8.92409C40.7824 8.90156 40.7657 8.88022 40.7492 8.85888C40.7418 8.84929 40.7352 8.83922 40.7274 8.82975C40.708 8.80613 40.687 8.78383 40.6659 8.76177C40.66 8.75566 40.655 8.74906 40.649 8.74307L32.2572 0.351257C32.2515 0.345623 32.2452 0.340708 32.2394 0.335193C32.217 0.313734 32.1945 0.292515 32.1705 0.272854C32.1616 0.265541 32.1519 0.259187 32.1428 0.252234C32.1209 0.235211 32.099 0.218187 32.076 0.202842C32.0686 0.197807 32.0607 0.193731 32.0531 0.188936C32.0276 0.172632 32.0019 0.156567 31.9751 0.142301C31.97 0.139664 31.9648 0.137506 31.9597 0.134868C31.9301 0.119523 31.9 0.104898 31.869 0.0919503C31.8656 0.0905117 31.862 0.0895526 31.8587 0.088114C31.8261 0.0749269 31.7929 0.0626988 31.7588 0.0523889C31.7549 0.0511901 31.7507 0.0504708 31.7466 0.0492719C31.7134 0.0395614 31.6798 0.0306901 31.6455 0.0238567C31.6355 0.0218187 31.6251 0.0209795 31.6151 0.0191813C31.5867 0.0142661 31.5583 0.00923099 31.5292 0.0063538C31.4894 0.00203801 31.4495 0 31.4094 0H1.19883C0.536836 0 0 0.536716 0 1.19883V49.152C0 49.8142 0.536836 50.3509 1.19883 50.3509H39.8012C40.4632 50.3509 41 49.8142 41 49.152V9.59064C41 9.55048 40.998 9.51056 40.994 9.471ZM32.6082 4.09305L36.907 8.39181H32.6082V4.09305ZM2.39766 47.9532V2.39766H30.2105V9.59064C30.2105 10.2528 30.7474 10.7895 31.4094 10.7895H38.6023V47.9532H2.39766Z" fill="#E7E7EA"/>
<path d="M10.7895 18.462C10.7895 19.1241 11.3263 19.6608 11.9883 19.6608H19.6608C20.3228 19.6608 20.8596 19.1241 20.8596 18.462C20.8596 17.7999 20.3228 17.2632 19.6608 17.2632H11.9883C11.3263 17.2632 10.7895 17.7999 10.7895 18.462Z" fill="#E7E7EA"/>
<path d="M19.421 12.4678C19.421 10.4847 17.8077 8.87134 15.8245 8.87134C13.8414 8.87134 12.2281 10.4847 12.2281 12.4678C12.2281 14.4509 13.8414 16.0643 15.8245 16.0643C17.8077 16.0643 19.421 14.4509 19.421 12.4678ZM14.6257 12.4678C14.6257 11.8068 15.1635 11.269 15.8245 11.269C16.4856 11.269 17.0234 11.8068 17.0234 12.4678C17.0234 13.1289 16.4856 13.6667 15.8245 13.6667C15.1635 13.6667 14.6257 13.1289 14.6257 12.4678Z" fill="#E7E7EA"/>
<path d="M7.19297 24.456H24.4561C25.1181 24.456 25.655 23.9193 25.655 23.2572V19.4338C25.655 18.7717 25.1181 18.235 24.4561 18.235C23.7941 18.235 23.2573 18.7717 23.2573 19.4338V22.0583H8.3918V7.19283H23.2573V15.3449C23.2573 16.007 23.7941 16.5437 24.4561 16.5437C25.1181 16.5437 25.655 16.007 25.655 15.3449V5.994C25.655 5.33188 25.1181 4.79517 24.4561 4.79517H7.19297C6.53098 4.79517 5.99414 5.33188 5.99414 5.994V23.2572C5.99414 23.9193 6.53098 24.456 7.19297 24.456Z" fill="#E7E7EA"/>
<path d="M33.807 28.0527H7.19297C6.53098 28.0527 5.99414 28.5895 5.99414 29.2516C5.99414 29.9137 6.53098 30.4504 7.19297 30.4504H33.807C34.469 30.4504 35.0058 29.9137 35.0058 29.2516C35.0058 28.5895 34.469 28.0527 33.807 28.0527Z" fill="#E7E7EA"/>
<path d="M33.807 34.0469H7.19297C6.53098 34.0469 5.99414 34.5836 5.99414 35.2457C5.99414 35.9078 6.53098 36.4445 7.19297 36.4445H33.807C34.469 36.4445 35.0058 35.9078 35.0058 35.2457C35.0058 34.5836 34.469 34.0469 33.807 34.0469Z" fill="#E7E7EA"/>
<path d="M33.807 40.041H7.19297C6.53098 40.041 5.99414 40.5777 5.99414 41.2398C5.99414 41.902 6.53098 42.4387 7.19297 42.4387H33.807C34.469 42.4387 35.0058 41.902 35.0058 41.2398C35.0058 40.5777 34.469 40.041 33.807 40.041Z" fill="#E7E7EA"/>
</svg>
