<svg width="39" height="41" viewBox="0 0 39 41" fill="none" xmlns="http://www.w3.org/2000/svg">
<path d="M37.9602 12.996L26.3922 1.07195C25.0056 -0.357315 22.7501 -0.357315 21.3637 1.07195L1.03981 22.0212C-0.346605 23.4505 -0.346605 25.7755 1.03981 27.2046L12.6078 39.1288C13.9944 40.5579 16.25 40.558 17.6364 39.1288L37.9601 18.1795C39.3467 16.7502 39.3465 14.4251 37.9602 12.996ZM14.74 37.6819C14.5743 37.6233 14.4163 37.5374 14.2839 37.401L2.7159 25.477C2.71277 25.4736 2.71204 25.4694 2.70867 25.466L14.7399 25.4659V37.6819H14.74ZM3.42116 23.0224L22.3351 3.52609L22.3353 22.4895C22.3351 22.7746 22.0945 23.0228 21.8179 23.0228L3.42116 23.0224ZM17.1102 36.2157V25.466H21.818C22.5897 25.466 23.3149 25.1563 23.86 24.5945C24.4051 24.0326 24.7054 23.2852 24.7055 22.4896V17.6369L35.1336 17.6373L17.1102 36.2157ZM24.7054 15.1937V2.79209C24.7086 2.79549 24.7128 2.79623 24.7161 2.79963L36.2841 14.7237C36.4163 14.86 36.4997 15.0228 36.5562 15.1941L24.7054 15.1937Z" fill="#E7E7EA"/>
<path d="M1.15495 5.18018H13.2937C13.9314 5.18018 14.4486 4.64707 14.4486 3.98942C14.4486 3.33177 13.9315 2.79858 13.2937 2.79858H1.15495C0.517077 2.79858 6.10352e-05 3.33169 6.10352e-05 3.98942C6.10352e-05 4.64707 0.517077 5.18018 1.15495 5.18018Z" fill="#E7E7EA"/>
<path d="M1.15495 9.85693H8.76676C9.40456 9.85693 9.92158 9.32383 9.92158 8.6661C9.92158 8.00853 9.40456 7.47534 8.76676 7.47534H1.15495C0.517077 7.47534 6.10352e-05 8.00845 6.10352e-05 8.6661C6.10352e-05 9.32383 0.517077 9.85693 1.15495 9.85693Z" fill="#E7E7EA"/>
<path d="M1.15495 14.3921H6.0695C6.70721 14.3921 7.22439 13.8589 7.22439 13.2012C7.22439 12.5434 6.70729 12.0103 6.0695 12.0103H1.15495C0.517077 12.0103 6.10352e-05 12.5435 6.10352e-05 13.2012C6.10352e-05 13.8589 0.517077 14.3921 1.15495 14.3921Z" fill="#E7E7EA"/>
<path d="M6.0695 36.2803H1.15495C0.517077 36.2803 6.10352e-05 36.8135 6.10352e-05 37.4712C6.10352e-05 38.1289 0.517077 38.6621 1.15495 38.6621H6.0695C6.70721 38.6621 7.22439 38.129 7.22439 37.4712C7.22439 36.8135 6.70729 36.2803 6.0695 36.2803Z" fill="#E7E7EA"/>
</svg>
