<svg width="40" height="40" viewBox="0 0 43 42" fill="none" xmlns="http://www.w3.org/2000/svg">
<path d="M21.5002 0C9.62751 0 0 9.62752 0 21.5042C0 31.0053 6.16045 39.066 14.7031 41.9094C15.7776 42.1085 16.1721 41.4429 16.1721 40.875C16.1721 40.3622 16.1522 38.6682 16.1429 36.8713C10.1616 38.1722 8.89942 34.3341 8.89942 34.3341C7.9214 31.8485 6.51222 31.1876 6.51222 31.1876C4.56151 29.8529 6.65926 29.8804 6.65926 29.8804C8.81825 30.0321 9.95507 32.0964 9.95507 32.0964C11.8727 35.3839 14.9848 34.4335 16.2116 33.884C16.4046 32.4941 16.9618 31.5455 17.5767 31.0085C12.8012 30.4647 7.78112 28.6208 7.78112 20.381C7.78112 18.0333 8.62101 16.115 9.99637 14.609C9.77313 14.0674 9.03721 11.8802 10.2046 8.91817C10.2046 8.91817 12.0101 8.34022 16.1187 11.1224C17.8337 10.646 19.673 10.407 21.5002 10.3988C23.3273 10.407 25.168 10.646 26.8863 11.1224C30.9899 8.34022 32.7929 8.91817 32.7929 8.91817C33.9631 11.8802 33.2269 14.0674 33.0036 14.609C34.3822 16.115 35.2164 18.0333 35.2164 20.381C35.2164 28.6404 30.1867 30.459 25.3991 30.9914C26.1703 31.6587 26.8574 32.9674 26.8574 34.9737C26.8574 37.851 26.8325 40.1667 26.8325 40.875C26.8325 41.4472 27.2195 42.1177 28.3093 41.9066C36.8474 39.0599 43 31.0021 43 21.5042C43 9.62752 33.3739 0 21.5002 0ZM8.05252 30.6332C8.00516 30.74 7.83712 30.772 7.68402 30.6987C7.52808 30.6285 7.44049 30.4829 7.49105 30.3757C7.53733 30.2657 7.70574 30.235 7.86133 30.3087C8.01762 30.3789 8.10663 30.526 8.05252 30.6332ZM9.11009 31.577C9.00755 31.6721 8.8071 31.6279 8.6711 31.4776C8.53046 31.3277 8.50412 31.1272 8.60808 31.0307C8.71382 30.9357 8.90821 30.9802 9.0492 31.1301C9.18984 31.2818 9.21725 31.4808 9.11009 31.577ZM9.83562 32.7846C9.70389 32.8761 9.48849 32.7903 9.35533 32.5991C9.2236 32.4078 9.2236 32.1785 9.35818 32.0866C9.49169 31.9948 9.70389 32.0774 9.83882 32.2672C9.9702 32.4616 9.9702 32.6909 9.83562 32.7846ZM11.0627 34.1832C10.9448 34.3131 10.6938 34.2782 10.5101 34.1009C10.3221 33.9275 10.2698 33.6814 10.388 33.5514C10.5072 33.4211 10.7597 33.4578 10.9448 33.6337C11.1314 33.8068 11.1883 34.0546 11.0627 34.1832ZM12.6485 34.6553C12.5965 34.8237 12.3547 34.9003 12.1112 34.8287C11.868 34.755 11.7089 34.5577 11.758 34.3875C11.8086 34.218 12.0514 34.1382 12.2967 34.2148C12.5395 34.2882 12.699 34.484 12.6485 34.6553ZM14.4532 34.8556C14.4593 35.0329 14.2528 35.18 13.9971 35.1832C13.7401 35.1889 13.5321 35.0454 13.5293 34.8709C13.5293 34.6918 13.7312 34.5461 13.9882 34.5418C14.2439 34.5369 14.4532 34.6793 14.4532 34.8556ZM16.2261 34.7876C16.2568 34.9607 16.0791 35.1384 15.8252 35.1857C15.5757 35.2313 15.3446 35.1245 15.3129 34.9528C15.2819 34.7755 15.4628 34.5978 15.712 34.5519C15.9662 34.5077 16.1937 34.6117 16.2261 34.7876Z" fill="#E7E7EA"/>
</svg>
